<svg id="_x33_0" enable-background="new 0 0 64 64" height="512" viewBox="0 0 64 64" width="512" xmlns="http://www.w3.org/2000/svg" xmlns:xlink="http://www.w3.org/1999/xlink"><linearGradient id="SVGID_1_" gradientUnits="userSpaceOnUse" x1="32" x2="32" y1="63" y2="1"><stop offset="0" stop-color="#9f2fff"/><stop offset="1" stop-color="#0bb1d3"/></linearGradient><path d="m11 46.819v11.181c0 1.654-1.346 3-3 3s-3-1.346-3-3c0-.551.449-1 1-1s1 .449 1 1v1h2v-1c0-1.654-1.346-3-3-3s-3 1.346-3 3c0 2.757 2.243 5 5 5s5-2.243 5-5v-11c5.514 0 10-4.486 10-10 0-4.411-3.589-8-8-8-3.309 0-6 2.691-6 6 0 2.206 1.794 4 4 4s4-1.794 4-4h-2c0 1.103-.897 2-2 2s-2-.897-2-2c0-2.206 1.794-4 4-4 3.309 0 6 2.691 6 6 0 4.411-3.589 8-8 8-5.514 0-10-4.486-10-10 0-4.057 1.984-7.869 5.308-10.195l10.9-7.63c2.375-1.662 3.792-4.385 3.792-7.284 0-4.902-3.989-8.891-8.891-8.891-1.714 0-3.109 1.395-3.109 3.109v16.371l-3.839 2.687c-3.858 2.7-6.161 7.124-6.161 11.833 0 5.934 4.334 10.863 10 11.819zm2-42.71c0-.611.498-1.109 1.109-1.109 3.8 0 6.891 3.091 6.891 6.891 0 2.247-1.099 4.357-2.939 5.646l-5.061 3.542zm14 52.891c2.206 0 4-1.794 4-4v-7.78l10 2v-8.04l-12-2.4v12.22h-2c-2.206 0-4 1.794-4 4s1.794 4 4 4zm4-17.78 8 1.6v3.96l-8-1.6zm-4 11.78h2v2c0 1.103-.897 2-2 2s-2-.897-2-2 .897-2 2-2zm24-22h-2c-2.206 0-4 1.794-4 4s1.794 4 4 4 4-1.794 4-4v-5.895l8 .8v3.095h-2c-2.206 0-4 1.794-4 4s1.794 4 4 4 4-1.794 4-4v-14.905l-12-1.2zm0 4c0 1.103-.897 2-2 2s-2-.897-2-2 .897-2 2-2h2zm10 2c0 1.103-.897 2-2 2s-2-.897-2-2 .897-2 2-2h2zm0-13.095v3.99l-8-.8v-3.99zm-18-12.905h2v12h2v-16c0-2.206-1.794-4-4-4s-4 1.794-4 4 1.794 4 4 4zm0-6c1.103 0 2 .897 2 2v2h-2c-1.103 0-2-.897-2-2s.897-2 2-2zm-14 20c2.206 0 4-1.794 4-4v-16h-2v12h-2c-2.206 0-4 1.794-4 4s1.794 4 4 4zm0-6h2v2c0 1.103-.897 2-2 2s-2-.897-2-2 .897-2 2-2zm7.792 44.086c8.395-3.729 15.013-10.812 18.158-19.429l1.879.686c-3.33 9.125-10.337 16.623-19.224 20.572zm17.786-43.714c-1.421-3.55-3.423-6.819-5.949-9.715l1.507-1.314c2.674 3.065 4.793 6.526 6.298 10.286zm-2.949 21.319 1.902.617c-3.256 10.035-11.794 17.948-22.281 20.652l-.499-1.937c9.831-2.534 17.832-9.942 20.878-19.332zm-1.578-21.245c-.667-1.339-1.447-2.64-2.32-3.866l1.629-1.16c.934 1.311 1.768 2.702 2.481 4.134zm-15.051 12.554c0-2.3-.652-4.534-1.886-6.461l1.685-1.078c1.44 2.249 2.201 4.856 2.201 7.539 0 1.866-.361 3.677-1.074 5.385l-1.846-.771c.61-1.462.92-3.014.92-4.614zm-.951-14.211 1.229-1.578c4.907 3.822 7.722 9.577 7.722 15.789 0 2.544-.472 5.023-1.401 7.369l-1.859-.737c.836-2.11 1.26-4.341 1.26-6.632 0-5.591-2.534-10.771-6.951-14.211z" fill="url(#SVGID_1_)"/></svg>