<svg id="_x33_0" enable-background="new 0 0 64 64" height="512" viewBox="0 0 64 64" width="512" xmlns="http://www.w3.org/2000/svg" xmlns:xlink="http://www.w3.org/1999/xlink"><linearGradient id="SVGID_1_" gradientUnits="userSpaceOnUse" x1="32" x2="32" y1="63" y2="1"><stop offset="0" stop-color="#9f2fff"/><stop offset="1" stop-color="#0bb1d3"/></linearGradient><path d="m52 41h-6v-2h6zm-11-9.465c0-1.398 1.138-2.535 2.535-2.535.502 0 .988.147 1.406.426l1.059.706v-13.132c0-1.103.897-2 2-2h2c1.103 0 2 .897 2 2v13.132l1.059-.706c.418-.279.904-.426 1.406-.426 1.397 0 2.535 1.137 2.535 2.535v.276c0 .206-.025.413-.075.614l-.813 3.252c-.046.186-.039.378.021.559l.507 1.521c.239.718.36 1.465.36 2.221 0 3.872-3.15 7.022-7.022 7.022h-1.955c-3.873 0-7.023-3.15-7.023-7.022 0-.756.121-1.503.359-2.22l.508-1.521c.061-.182.067-.374.021-.558l-.813-3.253c-.05-.202-.075-.409-.075-.615zm7 3.184 2-.5v-11.219h-2zm0-17.719v4h2v-4zm-4.236 19.87-.507 1.52c-.17.512-.257 1.047-.257 1.588 0 2.769 2.253 5.022 5.022 5.022h1.955c2.77 0 5.023-2.253 5.023-5.022 0-.541-.087-1.075-.258-1.589l-.506-1.52c-.182-.542-.204-1.122-.064-1.679l.813-3.25c.009-.042.015-.086.015-.129v-.276c0-.401-.501-.666-.832-.445l-2.168 1.445v3.246l-6 1.5v-4.746l-2.168-1.445c-.332-.22-.832.044-.832.445v.276c0 .043.006.087.017.13l.812 3.251c.139.555.116 1.135-.065 1.678zm-42.764 16.13v-44c0-1.103.897-2 2-2h2.08c.488-3.387 3.401-6 6.92-6s6.432 2.613 6.92 6h6.16c.488-3.387 3.401-6 6.92-6s6.432 2.613 6.92 6h6.16c.488-3.387 3.401-6 6.92-6s6.432 2.613 6.92 6h2.08c1.103 0 2 .897 2 2v44c0 1.103-.897 2-2 2h-10v6h2v2h-16v-2h2v-6h-14v6h2v2h-16v-2h2v-6h-10c-1.103 0-2-.897-2-2zm22 2h-8v6h8zm26 0h-8v6h8zm12.002-2v-2h-58.002v2zm-13.901-46h9.798c-.465-2.279-2.485-4-4.899-4s-4.434 1.721-4.899 4zm-2.101 4h6v-2h-6zm-16 0h6v-2h-6zm-1.899-4h9.798c-.465-2.279-2.485-4-4.899-4s-4.434 1.721-4.899 4zm-14.101 4h6v-2h-6zm-5.899-4h9.798c-.465-2.279-2.485-4-4.899-4s-4.434 1.721-4.899 4zm-4.101 2v40h58.002l-.002-40h-8v4h-10v-4h-6v4h-10v-4h-6v4h-10v-4zm8 16h-2v2h2zm4 0h-2v2h2zm4 0h-2v2h2zm4 10h-18v-18h18zm-2-16h-14v14h14zm-8 24h-8v-6h8zm-2-4h-4v2h4zm4-2h8v6h-8zm2 4h4v-2h-4zm-4 4h-8v2h8zm2 2h8v-2h-8zm26-30h-16v2h16zm0 4h-16v2h16zm0 4h-16v2h16zm-14 4h-2v2h2zm4 2v-2h-2v2zm4 0v-2h-2v2zm4 12h-14v2h14zm0-4h-14v2h14zm0-4h-14v2h14z" fill="url(#SVGID_1_)"/></svg>